<svg width="538" height="112" viewBox="0 0 538 112" fill="none" xmlns="http://www.w3.org/2000/svg">
<path id="&#62;tissue" d="M47.6 56C47.6 59.0667 47.3334 61.7333 46.8001 64H36.8001C37.3334 66.1333 37.6001 68.8 37.6001 72C37.6001 75.0667 37.3334 77.7333 36.8001 80H26.8C27.3334 82.1333 27.6001 84.8 27.6001 88C27.6001 91.0667 27.3334 93.7333 26.8 96H16.8001C17.3334 98.1333 17.6001 100.8 17.6001 104C17.6001 107.067 17.3334 109.733 16.8001 112H0.800049C0.266716 109.733 4.88758e-05 107.067 4.88758e-05 104C4.88758e-05 100.8 0.266716 98.1333 0.800049 96H10.8C10.2667 93.7333 10.0001 91.0667 10.0001 88C10.0001 84.8 10.2667 82.1333 10.8 80H20.8C20.2667 77.7333 20.0001 75.0667 20.0001 72C20.0001 68.8 20.2667 66.1333 20.8 64H30.8001C30.2667 61.7333 30.0001 59.0667 30.0001 56C30.0001 52.8 30.2667 50.1333 30.8001 48H20.8C20.2667 45.7333 20.0001 43.0667 20.0001 40C20.0001 36.8 20.2667 34.1333 20.8 32H10.8C10.2667 29.7333 10.0001 27.0667 10.0001 24C10.0001 20.8 10.2667 18.1333 10.8 16H0.800049C0.266716 13.7333 4.88758e-05 11.0667 4.88758e-05 7.99999C4.88758e-05 4.79999 0.266716 2.13333 0.800049 -4.76837e-07H16.8001C17.3334 2.13333 17.6001 4.79999 17.6001 7.99999C17.6001 11.0667 17.3334 13.7333 16.8001 16H26.8C27.3334 18.1333 27.6001 20.8 27.6001 24C27.6001 27.0667 27.3334 29.7333 26.8 32H36.8001C37.3334 34.1333 37.6001 36.8 37.6001 40C37.6001 43.0667 37.3334 45.7333 36.8001 48H46.8001C47.3334 50.1333 47.6 52.8 47.6 56ZM127.878 96C128.412 98.1333 128.678 100.8 128.678 104C128.678 107.067 128.412 109.733 127.878 112H95.8782C95.3448 109.733 95.0782 107.067 95.0782 104C95.0782 100.8 95.3448 98.1333 95.8782 96H87.8782C87.3448 93.7333 87.0782 91.0667 87.0782 88C87.0782 84.8 87.3448 82.1333 87.8782 80C87.3448 77.7333 87.0782 75.0667 87.0782 72C87.0782 68.8 87.3448 66.1333 87.8782 64C87.3448 61.7333 87.0782 59.0667 87.0782 56C87.0782 52.8 87.3448 50.1333 87.8782 48H71.8782C71.3448 45.7333 71.0782 43.0667 71.0782 40C71.0782 36.8 71.3448 34.1333 71.8782 32H87.8782C87.3448 29.7333 87.0782 27.0667 87.0782 24C87.0782 20.8 87.3448 18.1333 87.8782 16C87.3448 13.7333 87.0782 11.0667 87.0782 7.99999C87.0782 4.79999 87.3448 2.13333 87.8782 -4.76837e-07H103.878C104.412 2.13333 104.678 4.79999 104.678 7.99999C104.678 11.0667 104.412 13.7333 103.878 16C104.412 18.1333 104.678 20.8 104.678 24C104.678 27.0667 104.412 29.7333 103.878 32H127.878C128.412 34.1333 128.678 36.8 128.678 40C128.678 43.0667 128.412 45.7333 127.878 48H103.878C104.412 50.1333 104.678 52.8 104.678 56C104.678 59.0667 104.412 61.7333 103.878 64C104.412 66.1333 104.678 68.8 104.678 72C104.678 75.0667 104.412 77.7333 103.878 80C104.412 82.1333 104.678 84.8 104.678 88C104.678 91.0667 104.412 93.7333 103.878 96H127.878ZM175.956 16C175.423 13.7333 175.156 11.0667 175.156 7.99999C175.156 4.79999 175.423 2.13333 175.956 -4.76837e-07H191.956C192.49 2.13333 192.756 4.79999 192.756 7.99999C192.756 11.0667 192.49 13.7333 191.956 16H175.956ZM207.956 96C208.49 98.1333 208.756 100.8 208.756 104C208.756 107.067 208.49 109.733 207.956 112H159.956C159.423 109.733 159.156 107.067 159.156 104C159.156 100.8 159.423 98.1333 159.956 96H175.956C175.423 93.7333 175.156 91.0667 175.156 88C175.156 84.8 175.423 82.1333 175.956 80C175.423 77.7333 175.156 75.0667 175.156 72C175.156 68.8 175.423 66.1333 175.956 64C175.423 61.7333 175.156 59.0667 175.156 56C175.156 52.8 175.423 50.1333 175.956 48H163.956C163.423 45.7333 163.156 43.0667 163.156 40C163.156 36.8 163.423 34.1333 163.956 32H191.956C192.49 34.1333 192.756 36.8 192.756 40C192.756 43.0667 192.49 45.7333 191.956 48C192.49 50.1333 192.756 52.8 192.756 56C192.756 59.0667 192.49 61.7333 191.956 64C192.49 66.1333 192.756 68.8 192.756 72C192.756 75.0667 192.49 77.7333 191.956 80C192.49 82.1333 192.756 84.8 192.756 88C192.756 91.0667 192.49 93.7333 191.956 96H207.956ZM292.834 88C292.834 91.0667 292.568 93.7333 292.034 96H284.034C284.568 98.1333 284.834 100.8 284.834 104C284.834 107.067 284.568 109.733 284.034 112H240.034C239.501 109.733 239.234 107.067 239.234 104C239.234 100.8 239.501 98.1333 240.034 96H276.034C275.501 93.7333 275.234 91.0667 275.234 88C275.234 84.8 275.501 82.1333 276.034 80H244.034C243.501 77.7333 243.234 75.0667 243.234 72C243.234 68.8 243.501 66.1333 244.034 64H236.034C235.501 61.7333 235.234 59.0667 235.234 56C235.234 52.8 235.501 50.1333 236.034 48H244.034C243.501 45.7333 243.234 43.0667 243.234 40C243.234 36.8 243.501 34.1333 244.034 32H288.034C288.568 34.1333 288.834 36.8 288.834 40C288.834 43.0667 288.568 45.7333 288.034 48H252.034C252.568 50.1333 252.834 52.8 252.834 56C252.834 59.0667 252.568 61.7333 252.034 64H284.034C284.568 66.1333 284.834 68.8 284.834 72C284.834 75.0667 284.568 77.7333 284.034 80H292.034C292.568 82.1333 292.834 84.8 292.834 88ZM372.913 88C372.913 91.0667 372.646 93.7333 372.113 96H364.113C364.646 98.1333 364.913 100.8 364.913 104C364.913 107.067 364.646 109.733 364.113 112H320.113C319.579 109.733 319.313 107.067 319.313 104C319.313 100.8 319.579 98.1333 320.113 96H356.113C355.579 93.7333 355.313 91.0667 355.313 88C355.313 84.8 355.579 82.1333 356.113 80H324.113C323.579 77.7333 323.313 75.0667 323.313 72C323.313 68.8 323.579 66.1333 324.113 64H316.113C315.579 61.7333 315.313 59.0667 315.313 56C315.313 52.8 315.579 50.1333 316.113 48H324.113C323.579 45.7333 323.313 43.0667 323.313 40C323.313 36.8 323.579 34.1333 324.113 32H368.113C368.646 34.1333 368.913 36.8 368.913 40C368.913 43.0667 368.646 45.7333 368.113 48H332.113C332.646 50.1333 332.913 52.8 332.913 56C332.913 59.0667 332.646 61.7333 332.113 64H364.113C364.646 66.1333 364.913 68.8 364.913 72C364.913 75.0667 364.646 77.7333 364.113 80H372.113C372.646 82.1333 372.913 84.8 372.913 88ZM414.991 88C414.991 91.0667 414.724 93.7333 414.191 96H434.191C434.724 98.1333 434.991 100.8 434.991 104C434.991 107.067 434.724 109.733 434.191 112H402.191C401.657 109.733 401.391 107.067 401.391 104C401.391 100.8 401.657 98.1333 402.191 96H392.191C391.657 93.7333 391.391 91.0667 391.391 88C391.391 84.8 391.657 82.1333 392.191 80C391.657 77.7333 391.391 75.0667 391.391 72C391.391 68.8 391.657 66.1333 392.191 64C391.657 61.7333 391.391 59.0667 391.391 56C391.391 52.8 391.657 50.1333 392.191 48C391.657 45.7333 391.391 43.0667 391.391 40C391.391 36.8 391.657 34.1333 392.191 32H408.191C408.724 34.1333 408.991 36.8 408.991 40C408.991 43.0667 408.724 45.7333 408.191 48C408.724 50.1333 408.991 52.8 408.991 56C408.991 59.0667 408.724 61.7333 408.191 64C408.724 66.1333 408.991 68.8 408.991 72C408.991 75.0667 408.724 77.7333 408.191 80H414.191C414.724 82.1333 414.991 84.8 414.991 88ZM456.191 48C456.724 50.1333 456.991 52.8 456.991 56C456.991 59.0667 456.724 61.7333 456.191 64C456.724 66.1333 456.991 68.8 456.991 72C456.991 75.0667 456.724 77.7333 456.191 80C456.724 82.1333 456.991 84.8 456.991 88C456.991 91.0667 456.724 93.7333 456.191 96C456.724 98.1333 456.991 100.8 456.991 104C456.991 107.067 456.724 109.733 456.191 112H440.191C439.657 109.733 439.391 107.067 439.391 104C439.391 100.8 439.657 98.1333 440.191 96H434.191C433.657 93.7333 433.391 91.0667 433.391 88C433.391 84.8 433.657 82.1333 434.191 80H440.191C439.657 77.7333 439.391 75.0667 439.391 72C439.391 68.8 439.657 66.1333 440.191 64C439.657 61.7333 439.391 59.0667 439.391 56C439.391 52.8 439.657 50.1333 440.191 48C439.657 45.7333 439.391 43.0667 439.391 40C439.391 36.8 439.657 34.1333 440.191 32H456.191C456.724 34.1333 456.991 36.8 456.991 40C456.991 43.0667 456.724 45.7333 456.191 48ZM537.069 56C537.069 59.0667 536.802 61.7333 536.269 64C536.802 66.1333 537.069 68.8 537.069 72C537.069 75.0667 536.802 77.7333 536.269 80H494.269C494.802 82.1333 495.069 84.8 495.069 88C495.069 91.0667 494.802 93.7333 494.269 96H528.269C528.802 98.1333 529.069 100.8 529.069 104C529.069 107.067 528.802 109.733 528.269 112H488.269C487.735 109.733 487.469 107.067 487.469 104C487.469 100.8 487.735 98.1333 488.269 96H478.269C477.735 93.7333 477.469 91.0667 477.469 88C477.469 84.8 477.735 82.1333 478.269 80H472.269C471.735 77.7333 471.469 75.0667 471.469 72C471.469 68.8 471.735 66.1333 472.269 64H478.269C477.735 61.7333 477.469 59.0667 477.469 56C477.469 52.8 477.735 50.1333 478.269 48H488.269C487.735 45.7333 487.469 43.0667 487.469 40C487.469 36.8 487.735 34.1333 488.269 32H528.269C528.802 34.1333 529.069 36.8 529.069 40C529.069 43.0667 528.802 45.7333 528.269 48H536.269C536.802 50.1333 537.069 52.8 537.069 56ZM520.269 64C519.735 61.7333 519.469 59.0667 519.469 56C519.469 52.8 519.735 50.1333 520.269 48H494.269C494.802 50.1333 495.069 52.8 495.069 56C495.069 59.0667 494.802 61.7333 494.269 64H520.269Z" fill="#040404"/>
</svg>
